<?xml version="1.0" encoding="utf-8"?>
<!-- Generator: Adobe Illustrator 23.0.3, SVG Export Plug-In . SVG Version: 6.00 Build 0)  -->
<svg version="1.1" id="图层_1" xmlns="http://www.w3.org/2000/svg" xmlns:xlink="http://www.w3.org/1999/xlink" x="0px" y="0px"
	 viewBox="0 0 428.1 54.5" style="enable-background:new 0 0 428.1 54.5;" xml:space="preserve">
<style type="text/css">
	.st0{fill:url(#SVGID_1_);}
	.st1{fill:url(#SVGID_2_);}
	.st2{fill:url(#SVGID_3_);}
	.st3{fill:url(#SVGID_4_);}
	.st4{fill:url(#SVGID_5_);}
	.st5{fill:url(#SVGID_6_);}
	.st6{fill:url(#SVGID_7_);}
	.st7{fill:url(#SVGID_8_);}
	.st8{fill:#191919;}
	.st9{fill:url(#SVGID_9_);}
</style>
<linearGradient id="SVGID_1_" gradientUnits="userSpaceOnUse" x1="72.3698" y1="27.86" x2="128.31" y2="27.86">
	<stop  offset="0" style="stop-color:#32FDEF"/>
	<stop  offset="0.27" style="stop-color:#2FFCB1"/>
	<stop  offset="0.61" style="stop-color:#2CFA6B"/>
	<stop  offset="0.85" style="stop-color:#2AF93F"/>
	<stop  offset="0.98" style="stop-color:#29F92E"/>
</linearGradient>
<path class="st0" d="M112.3,6.9h16v22c0,15.5-12.5,20-28,20s-28-4.5-27.9-20v-5h16v4c-0.1,6.7,5.5,7.9,12,8c6.6-0.1,12.1-1.2,12-8
	L112.3,6.9z"/>
<linearGradient id="SVGID_2_" gradientUnits="userSpaceOnUse" x1="133.2898" y1="27.32" x2="189.2302" y2="27.32">
	<stop  offset="0" style="stop-color:#32FDEF"/>
	<stop  offset="0.27" style="stop-color:#2FFCB1"/>
	<stop  offset="0.61" style="stop-color:#2CFA6B"/>
	<stop  offset="0.85" style="stop-color:#2AF93F"/>
	<stop  offset="0.98" style="stop-color:#29F92E"/>
</linearGradient>
<path class="st1" d="M189.2,25.8v3c0.1,15.5-12.6,20-27.9,20s-28-4.5-28-20v-3c-0.1-15.5,12.6-20,28-20S189.2,10.3,189.2,25.8z
	 M173.2,26.8c0.1-6.7-5.4-7.9-12-8c-6.6,0.1-12.1,1.3-12,8v1c-0.1,6.7,5.5,7.9,12,8c6.5-0.1,12.1-1.3,12-8V26.8z"/>
<linearGradient id="SVGID_3_" gradientUnits="userSpaceOnUse" x1="194" y1="27.33" x2="241.93" y2="27.33">
	<stop  offset="0" style="stop-color:#32FDEF"/>
	<stop  offset="0.27" style="stop-color:#2FFCB1"/>
	<stop  offset="0.61" style="stop-color:#2CFA6B"/>
	<stop  offset="0.85" style="stop-color:#2AF93F"/>
	<stop  offset="0.98" style="stop-color:#29F92E"/>
</linearGradient>
<path class="st2" d="M209.9,6.8v28h32v13H194v-41L209.9,6.8z"/>
<linearGradient id="SVGID_4_" gradientUnits="userSpaceOnUse" x1="231.27" y1="27.35" x2="285.21" y2="27.35">
	<stop  offset="0" style="stop-color:#32FDEF"/>
	<stop  offset="0.27" style="stop-color:#2FFCB1"/>
	<stop  offset="0.61" style="stop-color:#2CFA6B"/>
	<stop  offset="0.85" style="stop-color:#2AF93F"/>
	<stop  offset="0.98" style="stop-color:#29F92E"/>
</linearGradient>
<path class="st3" d="M250.3,47.8v-28h-19v-13h53.9v13h-19v28H250.3z"/>
<linearGradient id="SVGID_5_" gradientUnits="userSpaceOnUse" x1="290.53" y1="27.33" x2="306.53" y2="27.33">
	<stop  offset="0" style="stop-color:#32FDEF"/>
	<stop  offset="0.27" style="stop-color:#2FFCB1"/>
	<stop  offset="0.61" style="stop-color:#2CFA6B"/>
	<stop  offset="0.85" style="stop-color:#2AF93F"/>
	<stop  offset="0.98" style="stop-color:#29F92E"/>
</linearGradient>
<path class="st4" d="M306.5,6.8v41h-16v-41L306.5,6.8z"/>
<linearGradient id="SVGID_6_" gradientUnits="userSpaceOnUse" x1="315" y1="27.39" x2="365" y2="27.39">
	<stop  offset="0" style="stop-color:#32FDEF"/>
	<stop  offset="0.27" style="stop-color:#2FFCB1"/>
	<stop  offset="0.61" style="stop-color:#2CFA6B"/>
	<stop  offset="0.85" style="stop-color:#2AF93F"/>
	<stop  offset="0.98" style="stop-color:#29F92E"/>
</linearGradient>
<path class="st5" d="M315,6.9h50v13h-34v5h30v12h-30v11h-16V6.9z"/>
<linearGradient id="SVGID_7_" gradientUnits="userSpaceOnUse" x1="366.08" y1="27.39" x2="428.08" y2="27.39">
	<stop  offset="0" style="stop-color:#32FDEF"/>
	<stop  offset="0.27" style="stop-color:#2FFCB1"/>
	<stop  offset="0.61" style="stop-color:#2CFA6B"/>
	<stop  offset="0.85" style="stop-color:#2AF93F"/>
	<stop  offset="0.98" style="stop-color:#29F92E"/>
</linearGradient>
<path class="st6" d="M397.1,21.6l12-14.7h19l-23,27v14h-16v-14l-23-27h19L397.1,21.6z"/>
<linearGradient id="SVGID_8_" gradientUnits="userSpaceOnUse" x1="3.6509" y1="15.0776" x2="50.9091" y2="42.3624" gradientTransform="matrix(1 0 0 -1 0 56)">
	<stop  offset="0" style="stop-color:#32FDEF"/>
	<stop  offset="0.27" style="stop-color:#2FFCB1"/>
	<stop  offset="0.61" style="stop-color:#2CFA6B"/>
	<stop  offset="0.85" style="stop-color:#2AF93F"/>
	<stop  offset="0.98" style="stop-color:#29F92E"/>
</linearGradient>
<circle class="st7" cx="27.3" cy="27.3" r="27.3"/>
<path class="st8" d="M27.3,12.2c0,0,2.5,0.5,8,1.9c5.2,1.3,7,1.9,7,1.9s0.3,5.3-2.1,15c-1.9,7.8-9,12.1-12.9,14.5
	c-4-2.4-11-6.8-12.9-14.5c-2.4-9.7-2.1-15-2.1-15s1.8-0.5,7-1.9C24.8,12.7,27.3,12.2,27.3,12.2z"/>
<linearGradient id="SVGID_9_" gradientUnits="userSpaceOnUse" x1="19.3714" y1="24.2117" x2="34.2486" y2="32.8101" gradientTransform="matrix(1 0 0 -1 0 56)">
	<stop  offset="0" style="stop-color:#32FDEF"/>
	<stop  offset="0.27" style="stop-color:#2FFCB1"/>
	<stop  offset="0.61" style="stop-color:#2CFA6B"/>
	<stop  offset="0.85" style="stop-color:#2AF93F"/>
	<stop  offset="0.98" style="stop-color:#29F92E"/>
</linearGradient>
<polygon class="st9" points="32.8,20.8 27.3,27 32.2,27 22.3,36.9 26,28.8 21.7,28.8 26.7,20.8 32.8,20.8 "/>
</svg>
